<svg viewBox="0 0 243 33" height="35px" width="243px" xmlns="http://www.w3.org/2000/svg" xmlns:xlink="http://www.w3.org/1999/xlink">
    <g fill="#002858">
        <path d="M49.92 25.13a5.5 5.5 0 01-4.36-1.94l-.38-.56v1.59a.55.55 0 01-.54.54H41.1a.55.55 0 01-.54-.54V.75A.55.55 0 0141.1.2h3.53a.55.55 0 01.54.55v9.9l.38-.55a5.5 5.5 0 014.36-1.94c4.14 0 7.52 3.8 7.52 8.48s-3.38 8.49-7.52 8.49zM48.78 12.3a4 4 0 00-4 4.33 4.01 4.01 0 108 0 4 4 0 00-4-4.33zM66.7 25.13c-3.87 0-6.09-2.67-6.09-7.32V9.07a.55.55 0 01.55-.55h3.52a.55.55 0 01.55.55v7.87c0 2.72.9 4.04 2.77 4.04 1.52 0 3.33-.8 3.33-4.57V9.07a.55.55 0 01.55-.55h3.52a.55.55 0 01.55.55v15.14a.55.55 0 01-.55.55h-3.52a.55.55 0 01-.54-.55v-1.6l-.38.54a4.94 4.94 0 01-4.26 1.98zM64.37 5.72a2.46 2.46 0 01-1.76-4.22 2.72 2.72 0 011.76-.7 2.45 2.45 0 012.18 1.41c.44.95.27 2.08-.43 2.86a2.85 2.85 0 01-1.75.64zm7.9 0a2.44 2.44 0 01-1.7-4.18 2.44 2.44 0 014.15 1.75 2.44 2.44 0 01-2.46 2.43zm19.47 19.04a.55.55 0 01-.55-.55v-8c0-2.51-1.03-3.9-2.9-3.9-2.23 0-3.56 1.71-3.56 4.57v7.34a.55.55 0 01-.55.55h-3.52a.55.55 0 01-.55-.55V.75a.55.55 0 01.55-.55h3.52a.55.55 0 01.54.55v9.93l.38-.55a5.38 5.38 0 014.46-1.97c3.86 0 6.25 2.75 6.25 7.18v8.87a.55.55 0 01-.54.55z"/>
        <use xlink:href="#B"/>
    </g>
    <use fill="#62b6f3" x="65.99" xlink:href="#B"/>
    <path d="M143.98 24.76a.55.55 0 01-.55-.54v-8c0-2.52-1.03-3.9-2.9-3.9-2.23 0-3.56 1.7-3.56 4.56v7.34a.55.55 0 01-.55.55h-3.52a.55.55 0 01-.55-.55V9.07a.55.55 0 01.55-.54h3.52a.55.55 0 01.55.54v1.61l.37-.55a5.37 5.37 0 014.46-1.97c3.86 0 6.25 2.75 6.25 7.19v8.87a.55.55 0 01-.54.54z"
          fill="#002858"/>
    <path d="M153.6 24.21V12.48h-2.78a.55.55 0 01-.55-.55V9.07a.55.55 0 01.55-.55h2.78V6.5a6.14 6.14 0 016.53-6.5c.78-.01 1.56.06 2.32.2a.55.55 0 01.43.55V3.6a.55.55 0 01-.62.54 6.5 6.5 0 00-.97-.05c-2.15 0-3.07.9-3.07 3.03v1.4h4.12a.55.55 0 01.54.55v2.86a.55.55 0 01-.54.54h-4.12v11.74a.55.55 0 01-.55.55h-3.52a.55.55 0 01-.55-.55z"
          fill="#62b6f3"/>
    <path d="M213.67 33.5c-4.15 0-7.52-3.8-7.52-8.48s3.37-8.48 7.52-8.48a5.61 5.61 0 014.37 1.96l.36.44V9.13a.55.55 0 01.55-.55h3.52a.55.55 0 01.55.55v23.46a.55.55 0 01-.55.55h-3.52a.55.55 0 01-.55-.55v-1.48l-.36.44a5.61 5.61 0 01-4.37 1.96zm1.13-12.81a4.35 4.35 0 104 4.33 4 4 0 00-4-4.33zm-14.12 12.78a2.93 2.93 0 110-5.84 2.93 2.93 0 010 5.84z"
          fill="#002858"/>
    <rect fill="#62b6f3" height="16.24" rx="1.16" width="4.62" x="198.35" y="8.54"/>
    <path d="M32.22 20.07a.56.56 0 00-.38.15c-.8.66-1.8 1.01-2.84 1-3 0-4.24-1.76-4.4-3.4l-.03-.22h12.3a.54.54 0 00.38-.16.55.55 0 00.16-.39 9.34 9.34 0 00-2.45-6.42 8.58 8.58 0 00-6.23-2.47 8.49 8.49 0 100 16.97 8.96 8.96 0 007.86-4.25.55.55 0 00-.48-.81zm-7.48-5.51a4.02 4.02 0 014.08-2.98 3.88 3.88 0 013.87 2.98l.07.26h-8.1zm102.01-3.93a8.58 8.58 0 00-6.23-2.47 8.49 8.49 0 100 16.97 8.96 8.96 0 007.86-4.25.55.55 0 00-.48-.81H124a.56.56 0 00-.37.15 4.4 4.4 0 01-2.85 1c-3 0-4.24-1.76-4.4-3.4l-.02-.22h12.3a.54.54 0 00.38-.16.55.55 0 00.16-.39 9.34 9.34 0 00-2.45-6.42zm-10.3 4.19l.07-.26a4.02 4.02 0 014.08-2.98 3.88 3.88 0 013.87 2.98l.07.26z"
          fill="#002858"/>
    <path d="M192.74 10.63a8.58 8.58 0 00-6.24-2.47 8.49 8.49 0 100 16.97 8.96 8.96 0 007.87-4.25.55.55 0 00-.49-.81H190a.56.56 0 00-.38.15 4.4 4.4 0 01-2.85 1c-3 0-4.24-1.76-4.4-3.4l-.02-.22h12.29c.15 0 .29-.05.4-.16s.15-.24.15-.39a9.34 9.34 0 00-2.45-6.42zm-10.31 4.19l.08-.26a4.02 4.02 0 014.08-2.98 3.88 3.88 0 013.87 2.98l.07.26z"
          fill="#62b6f3"/>
    <path d="M241.05 19.01a8.58 8.58 0 00-6.23-2.47 8.49 8.49 0 100 16.97 8.96 8.96 0 007.86-4.25.55.55 0 00-.49-.81h-3.88a.56.56 0 00-.38.16c-.8.65-1.81 1-2.85.98-3 0-4.24-1.74-4.4-3.38l-.02-.22h12.3a.54.54 0 00.38-.17.55.55 0 00.16-.39 9.34 9.34 0 00-2.45-6.42zm-10.3 4.19l.07-.26a4.02 4.02 0 014.08-2.98 3.88 3.88 0 013.87 2.98l.07.26zM12.86 8.53a.55.55 0 00-.55.54v1.61l-.38-.58a5.23 5.23 0 00-4.36-1.94C3.4 8.16 0 11.83 0 16.34s3.4 8.19 7.58 8.19a5.23 5.23 0 004.36-1.94l.38-.58v2.66a3.37 3.37 0 01-3.54 3.64 3.44 3.44 0 01-3.1-1.42.57.57 0 00-.46-.26H1.55a.55.55 0 00-.52.7c.92 2.84 3.85 4.72 7.62 4.72 5.19 0 8.29-3.03 8.29-8.11V9.07a.55.55 0 00-.55-.54zM8.7 20.38a4.04 4.04 0 01-4.04-4.04A4.04 4.04 0 018.7 12.3a4.04 4.04 0 014.03 4.04 3.95 3.95 0 01-4.04 4.04z"
          fill="#002858"/>
    <defs>
        <path d="M99.83 24.21V9.07a.55.55 0 01.55-.55h3.52a.55.55 0 01.55.55v2.91l.4-1.1a4.04 4.04 0 013.77-2.56 6.24 6.24 0 01.96.07.55.55 0 01.46.54v3.48a.55.55 0 01-.67.53 6.29 6.29 0 00-1.35-.14c-2.2 0-3.57 1.64-3.57 4.27v7.14a.55.55 0 01-.55.55h-3.52a.55.55 0 01-.55-.55z"
              id="B"/>
    </defs>
</svg>